<?xml version="1.0" encoding="iso-8859-1"?>
<!-- Generator: Adobe Illustrator 18.0.0, SVG Export Plug-In . SVG Version: 6.00 Build 0)  -->
<!DOCTYPE svg PUBLIC "-//W3C//DTD SVG 1.1//EN" "http://www.w3.org/Graphics/SVG/1.1/DTD/svg11.dtd">
<svg xmlns="http://www.w3.org/2000/svg" xmlns:xlink="http://www.w3.org/1999/xlink" version="1.1" id="Capa_1" x="0px" y="0px" viewBox="0 0 58.45 58.45" style="enable-background:new 0 0 58.45 58.45;" xml:space="preserve" width="512px" height="512px">
	<path d="M58.157,56.743l-5.614-5.614c0.304-0.304,0.38-0.769,0.188-1.154l-2.539-5.078c1.457-1.935,1.325-4.694-0.436-6.455   l-2.992-2.992H24.136l14.305,14.305c0.934,0.934,2.174,1.448,3.495,1.448c1.087,0,2.11-0.366,2.963-1.01l5.075,2.538   c0.142,0.071,0.295,0.105,0.447,0.105c0.26,0,0.516-0.101,0.708-0.293l5.614,5.614c0.195,0.195,0.451,0.293,0.707,0.293   s0.512-0.098,0.707-0.293C58.547,57.766,58.547,57.133,58.157,56.743z M36.45,40.45c-0.552,0-1-0.448-1-1c0-0.552,0.448-1,1-1   s1,0.448,1,1C37.45,40.002,37.002,40.45,36.45,40.45z M41.45,46.45c-0.552,0-1-0.448-1-1c0-0.552,0.448-1,1-1s1,0.448,1,1   C42.45,46.002,42.002,46.45,41.45,46.45z M42.45,40.45c0-0.552,0.448-1,1-1s1,0.448,1,1c0,0.552-0.448,1-1,1   S42.45,41.002,42.45,40.45z" fill="#F58900"/>
	<path d="M18.278,23.935l-6.748-6.748l1.414-1.414l6.748,6.748l2.829-2.829l-6.748-6.748l1.414-1.414l6.748,6.748l2.829-2.829   l-6.748-6.748l2.121-2.121c0.391-0.391,0.391-1.023,0-1.414s-1.023-0.391-1.414,0l-2.121,2.121l-2.829,2.829L9.485,3.828   l2.121-2.121c0.391-0.391,0.391-1.023,0-1.414s-1.023-0.391-1.414,0l-9.899,9.899c-0.391,0.391-0.391,1.023,0,1.414   C0.488,11.802,0.744,11.899,1,11.899s0.512-0.098,0.707-0.293l2.121-2.121l6.288,6.288l-2.829,2.829l-2.121,2.121   c-0.391,0.391-0.391,1.023,0,1.414c0.195,0.195,0.451,0.293,0.707,0.293s0.512-0.098,0.707-0.293l2.121-2.121l6.748,6.748   L18.278,23.935z M5.253,8.082l2.829-2.829l6.277,6.277l-2.829,2.829L5.253,8.082z" fill="#F58900"/>
	<path d="M23.692,33.45h21.071L28.177,16.864l-2.829,2.829l0,0l-5.657,5.657l0,0l-2.829,2.829l1.808,1.808l4.242-4.243   c0.391-0.391,1.023-0.391,1.414,0s0.391,1.023,0,1.414l-4.242,4.243l1.414,1.414l4.243-4.242c0.391-0.391,1.023-0.391,1.414,0   s0.391,1.023,0,1.414L23.692,33.45z" fill="#F58900"/>
</svg>
