<?xml version="1.0" encoding="iso-8859-1"?>
<!DOCTYPE svg PUBLIC "-//W3C//DTD SVG 1.1//EN" "http://www.w3.org/Graphics/SVG/1.1/DTD/svg11.dtd">
<svg xmlns="http://www.w3.org/2000/svg" xmlns:xlink="http://www.w3.org/1999/xlink" version="1.1" id="Capa_1" viewBox="0 0 297 297" enable-background="new 0 0 297 297" width="60px" height="60px">
    <path d="m96.734,46.798c5.775,0 10.458-4.682 10.458-10.458 0-13.683 11.924-15.271 15.584-15.425h15.266v32.26c-7.847,2.148-14.716,6.661-19.824,12.708h60.563c-5.108-6.047-11.977-10.56-19.824-12.708v-32.26h32.68c5.775,0 10.458-4.682 10.458-10.458s-4.682-10.457-10.457-10.457h-69.021c-0.07,0-0.141,0.001-0.211,0.002-14.522,0.293-36.129,10.213-36.129,36.339-0.001,5.775 4.682,10.457 10.457,10.457z" fill="#F58900"/>
    <polygon points="155.82,227.456 222.301,227.456 212.066,155.82 155.82,155.82  " fill="#F58900"/>
    <path d="m104.698,80.967c-5.204,0-9.616,3.827-10.353,8.979l-24.526,171.672c-1.645,8.703 0.623,17.599 6.246,24.459 5.691,6.942 14.102,10.923 23.078,10.923h98.712c8.976,0 17.388-3.981 23.08-10.923 5.623-6.859 7.891-15.756 6.246-24.458l-2.789-19.521h-75.892c-4.043,0-7.32-3.277-7.32-7.32v-86.278c0-4.043 3.277-7.32 7.32-7.32h61.474l-7.32-51.234c-0.736-5.152-5.148-8.979-10.353-8.979h-87.603z" fill="#F58900"/>
</svg>
