<?xml version="1.0" encoding="UTF-8" standalone="no"?>
<!-- Generator: Adobe Illustrator 16.0.0, SVG Export Plug-In . SVG Version: 6.00 Build 0)  -->

<svg
   xmlns:dc="http://purl.org/dc/elements/1.1/"
   xmlns:cc="http://creativecommons.org/ns#"
   xmlns:rdf="http://www.w3.org/1999/02/22-rdf-syntax-ns#"
   xmlns:svg="http://www.w3.org/2000/svg"
   xmlns="http://www.w3.org/2000/svg"
   xmlns:sodipodi="http://sodipodi.sourceforge.net/DTD/sodipodi-0.dtd"
   xmlns:inkscape="http://www.inkscape.org/namespaces/inkscape"
   version="1.1"
   id="Calque_1"
   x="0px"
   y="0px"
   width="118.25px"
   height="83.611px"
   viewBox="0 0 118.25 83.611"
   enable-background="new 0 0 118.25 83.611"
   xml:space="preserve"
   inkscape:version="0.91 r13725"
   sodipodi:docname="logo-veto.svg"><metadata
     id="metadata4334"><rdf:RDF><cc:Work
         rdf:about=""><dc:format>image/svg+xml</dc:format><dc:type
           rdf:resource="http://purl.org/dc/dcmitype/StillImage" /><dc:title></dc:title></cc:Work></rdf:RDF></metadata><defs
     id="defs4332"><marker
       inkscape:stockid="Arrow1Lstart"
       orient="auto"
       refY="0.0"
       refX="0.0"
       id="Arrow1Lstart"
       style="overflow:visible"
       inkscape:isstock="true"><path
         id="path4374"
         d="M 0.0,0.0 L 5.0,-5.0 L -12.5,0.0 L 5.0,5.0 L 0.0,0.0 z "
         style="fill-rule:evenodd;stroke:#000000;stroke-width:1pt;stroke-opacity:1;fill:#ffffff;fill-opacity:1"
         transform="scale(0.8) translate(12.5,0)" /></marker></defs><sodipodi:namedview
     pagecolor="#ffffff"
     bordercolor="#666666"
     borderopacity="1"
     objecttolerance="10"
     gridtolerance="10"
     guidetolerance="10"
     inkscape:pageopacity="0"
     inkscape:pageshadow="2"
     inkscape:window-width="1366"
     inkscape:window-height="744"
     id="namedview4330"
     showgrid="false"
     inkscape:zoom="12.38055"
     inkscape:cx="55.75864"
     inkscape:cy="31.635838"
     inkscape:window-x="0"
     inkscape:window-y="24"
     inkscape:window-maximized="1"
     inkscape:current-layer="g4256" /><g
     id="g4256"><g
       id="g4258"
       style="fill:#ffffff;stroke:none;stroke-opacity:1;fill-opacity:1"><path
         fill="#FFFFFF"
         d="M28.339,65.754c0,0,3.848-0.056,9.621-0.14c2.886-0.022,6.253-0.049,9.861-0.077    c3.608-0.011,7.456-0.021,11.304-0.033c3.848,0.012,7.696,0.022,11.304,0.033c3.607,0.027,6.975,0.054,9.861,0.076    c5.772,0.084,9.621,0.141,9.621,0.141s-3.848,0.057-9.621,0.141c-2.886,0.022-6.253,0.049-9.861,0.076    c-3.608,0.011-7.456,0.021-11.304,0.033c-3.848-0.012-7.696-0.022-11.304-0.033c-3.607-0.028-6.975-0.055-9.861-0.077    C32.188,65.81,28.339,65.754,28.339,65.754z"
         id="path4260"
         style="fill:#ffffff;stroke:none;stroke-opacity:1;fill-opacity:1" /></g><circle
       style="fill:none;stroke:#ffffff;stroke-width:0.6;stroke-miterlimit:10;stroke-opacity:1;stroke-dasharray:none"
       id="circle4264"
       r="5.783"
       cy="59.77"
       cx="42.735001"
       stroke-miterlimit="10" /><g
       id="g4266"
       style="fill:none;stroke:#ffffff;stroke-opacity:1;stroke-width:0.5;stroke-miterlimit:4;stroke-dasharray:none"><line
         style="fill:none;stroke:#ffffff;stroke-width:0.5;stroke-miterlimit:4;stroke-opacity:1;stroke-dasharray:none"
         id="line4268"
         y2="65.554001"
         x2="42.735001"
         y1="53.986"
         x1="42.735001"
         stroke-miterlimit="10" /><line
         style="fill:none;stroke:#ffffff;stroke-width:0.5;stroke-miterlimit:4;stroke-opacity:1;stroke-dasharray:none"
         id="line4270"
         y2="59.77"
         x2="36.952"
         y1="59.77"
         x1="48.518002"
         stroke-miterlimit="10" /><line
         style="fill:none;stroke:#ffffff;stroke-width:0.5;stroke-miterlimit:4;stroke-opacity:1;stroke-dasharray:none"
         id="line4272"
         y2="63.859001"
         x2="38.645"
         y1="55.68"
         x1="46.825001"
         stroke-miterlimit="10" /><line
         style="fill:none;stroke:#ffffff;stroke-width:0.5;stroke-miterlimit:4;stroke-opacity:1;stroke-dasharray:none"
         id="line4274"
         y2="55.68"
         x2="38.645"
         y1="63.859001"
         x1="46.825001"
         stroke-miterlimit="10" /></g><g
       id="g4276"
       style="fill:none;stroke:#ffffff;stroke-opacity:1;stroke-width:0.5;stroke-miterlimit:4;stroke-dasharray:none;stroke-linejoin:round"><line
         style="fill:none;stroke:#ffffff;stroke-width:0.5;stroke-miterlimit:4;stroke-opacity:1;stroke-dasharray:none;stroke-linejoin:round"
         id="line4278"
         y2="65.554001"
         x2="57.570999"
         y1="56.346001"
         x1="57.570999"
         stroke-miterlimit="10" /><line
         style="fill:none;stroke:#ffffff;stroke-width:0.5;stroke-miterlimit:4;stroke-opacity:1;stroke-dasharray:none;stroke-linejoin:round"
         id="line4280"
         y2="60.949001"
         x2="52.966999"
         y1="60.949001"
         x1="62.174"
         stroke-miterlimit="10" /><line
         style="fill:none;stroke:#ffffff;stroke-width:0.5;stroke-miterlimit:4;stroke-opacity:1;stroke-dasharray:none;stroke-linejoin:round"
         id="line4282"
         y2="64.205002"
         x2="54.314999"
         y1="57.694"
         x1="60.827"
         stroke-miterlimit="10" /><line
         style="fill:none;stroke:#ffffff;stroke-width:0.5;stroke-miterlimit:4;stroke-opacity:1;stroke-dasharray:none;stroke-linejoin:round"
         id="line4284"
         y2="57.694"
         x2="54.314999"
         y1="64.205002"
         x1="60.827"
         stroke-miterlimit="10" /></g><path
       style="fill:none;stroke:#ffffff;stroke-opacity:1;fill-opacity:1;stroke-linejoin:round;stroke-linecap:round;stroke-width:0.7;stroke-miterlimit:4;stroke-dasharray:none;stroke-dashoffset:0"
       inkscape:connector-curvature="0"
       id="path4286"
       d="m 62.612,45.303 c -0.923,-3.582 -3.239,-6.84 -3.837,-7.641 -0.093,-0.121 -0.146,-0.189 -0.146,-0.189 l 0,0 c -0.998,-1.297 -2.044,-2.432 -2.987,-3.314 -0.665,-0.621 -1.281,-1.119 -1.789,-1.461 -0.139,-0.093 -0.268,-0.184 -0.39,-0.275 -2.025,-1.508 -2.207,-2.994 -2.078,-3.867 0.103,-0.232 0.19,-0.484 0.239,-0.787 0.872,-5.438 -3.05,-7.688 -3.635,-7.993 -0.047,-0.024 -0.079,-0.04 -0.079,-0.04 l -0.273,0.191 -0.387,0.272 -1.199,0.843 1.944,-2.09 c -7.129,-3.472 -9.342,2.348 -9.635,3.234 -0.023,0.072 -0.034,0.113 -0.034,0.113 -0.037,0.056 -0.072,0.12 -0.109,0.193 0,0 0,0 0,10e-4 -0.607,1.308 -1.87,1.414 -2.552,1.882 -0.155,0.105 -0.279,0.23 -0.36,0.393 -0.004,0.002 -0.004,0.004 -0.006,0.006 l 0,0.002 c 0.332,1.839 3.016,2.09 3.016,2.09 -0.388,0.703 0.013,1.229 0.433,1.483 0.28,0.171 0.572,0.219 0.644,0.118 0.959,-1.248 3.96,-1.838 4.15,-1.875 -0.033,0.334 -0.047,0.672 -0.011,1.021 -0.995,0.806 -3.706,3.953 -2.22,9.612 l -0.012,-0.012 c 0,0 0.105,0.536 0.396,1.276 0.003,0.014 0.008,0.025 0.012,0.039 -0.009,-0.055 -0.021,-0.158 -0.021,-0.313 0.007,-0.113 0.002,-0.256 0.039,-0.414 0.021,-0.163 0.072,-0.34 0.139,-0.531 0.082,-0.185 0.158,-0.399 0.301,-0.587 0.123,-0.206 0.297,-0.386 0.481,-0.572 0.204,-0.15 0.403,-0.353 0.651,-0.458 l 0.365,-0.186 0.386,-0.132 c 0.26,-0.095 0.525,-0.128 0.784,-0.17 0.262,-0.058 0.521,-0.046 0.769,-0.051 0.497,-0.027 0.949,0.068 1.334,0.118 0.195,0.023 0.366,0.086 0.52,0.123 0.15,0.045 0.285,0.084 0.395,0.115 0.214,0.07 0.335,0.111 0.335,0.111 0,0 -0.128,0.004 -0.355,0.012 -0.112,10e-4 -0.248,10e-4 -0.403,0.002 -0.156,0.004 -0.33,-0.014 -0.52,-0.002 -0.188,0.01 -0.395,0.02 -0.606,0.022 -0.217,-0.005 -0.438,0.028 -0.669,0.051 -0.229,0.021 -0.466,0.044 -0.698,0.097 -0.234,0.045 -0.475,0.082 -0.695,0.172 l -0.341,0.104 -0.317,0.15 c -0.216,0.086 -0.39,0.229 -0.577,0.345 -0.161,0.146 -0.339,0.271 -0.463,0.431 -0.145,0.146 -0.244,0.313 -0.351,0.46 -0.348,0.576 -0.457,1.063 -0.472,1.136 0.003,0.008 0.006,0.016 0.009,0.023 l -0.012,-0.01 c -0.241,3.598 -1.74,5.514 -2.207,5.688 -1.991,0.142 -1.852,2.487 -1.852,2.487 0,0 0.004,-0.492 2.131,-0.445 2.129,0.047 1.992,-1.09 2.333,-1.915 0.16,-0.387 0.98,-1.269 2.06,-2.5 0.714,0.511 1.585,0.885 2.662,0.978 l 0.919,-0.205 0.021,-0.005 0.02,0 0.717,-0.013 0.723,0.035 0.72,0.1 c 0.235,0.063 0.479,0.1 0.709,0.186 0.228,0.093 0.466,0.159 0.677,0.291 l 0.327,0.177 0.3,0.22 c 0.209,0.137 0.369,0.33 0.543,0.502 0.166,0.184 0.3,0.393 0.44,0.593 0.105,0.219 0.24,0.427 0.323,0.653 0.072,0.23 0.181,0.451 0.225,0.687 0.05,0.233 0.122,0.464 0.141,0.702 0.025,0.236 0.059,0.473 0.074,0.707 0.018,0.475 0.024,0.943 -0.013,1.412 -0.007,0.471 -0.103,0.934 -0.15,1.397 0.005,-0.468 0.043,-0.935 0.02,-1.399 0.004,-0.466 -0.042,-0.928 -0.092,-1.387 -0.032,-0.229 -0.08,-0.454 -0.122,-0.68 -0.039,-0.227 -0.121,-0.439 -0.174,-0.661 -0.053,-0.224 -0.164,-0.421 -0.242,-0.633 -0.085,-0.209 -0.219,-0.392 -0.323,-0.587 -0.136,-0.176 -0.266,-0.357 -0.417,-0.514 -0.167,-0.146 -0.313,-0.313 -0.504,-0.423 L 51.43,43.839 51.133,43.694 c -0.191,-0.107 -0.412,-0.156 -0.62,-0.232 -0.211,-0.064 -0.432,-0.101 -0.646,-0.154 l -0.668,-0.081 -0.681,-0.022 -0.66,0.021 -0.865,0.208 c -0.284,0.094 -0.575,0.173 -0.856,0.279 -0.27,0.119 -0.557,0.213 -0.809,0.364 -0.269,0.127 -0.508,0.291 -0.746,0.457 -0.224,0.181 -0.458,0.354 -0.637,0.574 -0.1,0.103 -0.191,0.21 -0.266,0.331 -0.079,0.117 -0.164,0.23 -0.22,0.361 -0.258,0.5 -0.372,1.071 -0.365,1.65 0.007,0.58 0.124,1.166 0.306,1.734 0.092,0.284 0.202,0.563 0.317,0.842 0.125,0.274 0.247,0.551 0.384,0.82 0.553,1.078 1.245,2.104 2.023,3.036 l 0.213,0.257 -0.326,0.018 c -0.336,0.02 -0.674,0.037 -1.008,0.096 -0.327,0.069 -0.658,0.153 -0.954,0.311 -0.153,0.069 -0.288,0.168 -0.423,0.268 -0.129,0.106 -0.247,0.227 -0.348,0.363 -0.199,0.27 -0.307,1.359 -0.316,1.706 1.122,0.093 2.189,-0.155 3.196,-0.118 8.651,0.322 12.815,0.113 14.928,-2.327 0.023,-0.026 0.043,-0.054 0.065,-0.08 1.739,-2.074 2.098,-6.593 1.461,-9.073 z" /><g
       id="g4288"
       style="fill:#ffffff;fill-opacity:1;stroke:#ffffff;stroke-opacity:1"
       transform="matrix(1.0105073,0,0,0.7810329,-0.64318014,12.515969)"><path
         style="fill:#ffffff;fill-opacity:1;stroke:#ffffff;stroke-opacity:1"
         inkscape:connector-curvature="0"
         id="path4290"
         d="m 60.43,55.093 -1.771,0 c -2.518,1.157 -6.011,1.745 -10.453,1.745 -0.471,0 -0.975,-0.016 -1.473,-0.028 0.16,0.118 0.348,0.202 0.563,0.202 l 13.134,0 c 0.53,0 0.96,-0.43 0.96,-0.959 0,-0.531 -0.43,-0.96 -0.96,-0.96 z" /></g><g
       id="g4292"
       style="fill:none;stroke:#ffffff;stroke-opacity:1;stroke-width:0.6;stroke-miterlimit:4;stroke-dasharray:none;stroke-linejoin:round"><g
         id="g4294"
         style="fill:none;stroke:#ffffff;stroke-opacity:1;stroke-width:0.6;stroke-miterlimit:4;stroke-dasharray:none;stroke-linejoin:round"><g
           id="g4296"
           style="fill:none;stroke:#ffffff;stroke-opacity:1;stroke-width:0.6;stroke-miterlimit:4;stroke-dasharray:none;stroke-linejoin:round"><line
             style="fill:none;stroke:#ffffff;stroke-width:0.6;stroke-linecap:round;stroke-linejoin:round;stroke-miterlimit:4;stroke-opacity:1;stroke-dasharray:none"
             id="line4298"
             y2="58.542999"
             x2="49.368"
             y1="57.09"
             x1="48.333"
             stroke-miterlimit="10" /><line
             style="fill:none;stroke:#ffffff;stroke-width:0.6;stroke-linecap:round;stroke-linejoin:round;stroke-miterlimit:4;stroke-opacity:1;stroke-dasharray:none"
             id="line4300"
             y2="57.09"
             x2="41.960999"
             y1="57.09"
             x1="48.333"
             stroke-miterlimit="10" /></g><g
           id="g4302"
           style="fill:none;stroke:#ffffff;stroke-opacity:1;stroke-width:0.6;stroke-miterlimit:4;stroke-dasharray:none;stroke-linejoin:round"><line
             style="fill:none;stroke:#ffffff;stroke-width:0.6;stroke-linecap:round;stroke-linejoin:round;stroke-miterlimit:4;stroke-opacity:1;stroke-dasharray:none"
             id="line4304"
             y2="58.542999"
             x2="49.368"
             y1="59.997002"
             x1="50.403"
             stroke-miterlimit="10" /></g><line
           style="fill:none;stroke:#ffffff;stroke-width:0.6;stroke-linecap:round;stroke-linejoin:round;stroke-miterlimit:4;stroke-opacity:1;stroke-dasharray:none"
           id="line4306"
           y2="60.033001"
           x2="50.403"
           y1="60.033001"
           x1="53.067001"
           stroke-miterlimit="10" /></g><g
         id="g4308"
         style="fill:none;stroke:#ffffff;stroke-opacity:1;stroke-width:0.6;stroke-miterlimit:4;stroke-dasharray:none;stroke-linejoin:round"><g
           id="g4310"
           style="fill:none;stroke:#ffffff;stroke-width:0.63134909;stroke-miterlimit:4;stroke-dasharray:none;stroke-opacity:1;stroke-linejoin:round"
           transform="matrix(1.0059121,0,0,0.89784911,-0.23522201,5.0168912)"><line
             style="fill:none;stroke:#ffffff;stroke-width:0.63134909;stroke-linecap:round;stroke-linejoin:round;stroke-miterlimit:4;stroke-dasharray:none;stroke-opacity:1"
             id="line4312"
             y2="48.810791"
             x2="42.741062"
             y1="46.679859"
             x1="38.711269"
             stroke-miterlimit="10" /><path
             style="fill:none;stroke:#ffffff;stroke-width:0.63134909;stroke-linecap:round;stroke-linejoin:round;stroke-miterlimit:4;stroke-dasharray:none;stroke-opacity:1"
             d="m 41.960938,45.769531 -5.133702,1.401221 z"
             id="line4314"
             inkscape:connector-curvature="0"
             sodipodi:nodetypes="ccc" /></g><line
           style="fill:none;stroke:#ffffff;stroke-width:0.6;stroke-linecap:round;stroke-linejoin:round;stroke-miterlimit:4;stroke-opacity:1;stroke-dasharray:none"
           id="line4316"
           y2="57.012001"
           x2="42.735001"
           y1="48.893002"
           x1="42.735001"
           stroke-miterlimit="10" /></g></g><path
       style="fill:#ffffff;stroke:#ffffff;stroke-opacity:1;fill-opacity:1;stroke-width:0.2;stroke-miterlimit:4;stroke-dasharray:none"
       inkscape:connector-curvature="0"
       id="path4322"
       d="m 61.58,62.75 c -0.69,1.531 -2.224,2.604 -4.009,2.604 -2.428,0 -4.403,-1.976 -4.403,-4.404 0,-2.428 1.976,-4.403 4.403,-4.403 2.427,0 4.403,1.976 4.403,4.403 0,0.275 -0.032,0.541 -0.081,0.801 l 0.4,0 c 0.045,-0.262 0.081,-0.525 0.081,-0.801 0,-2.648 -2.155,-4.804 -4.804,-4.804 -2.649,0 -4.804,2.155 -4.804,4.804 0,2.649 2.155,4.805 4.804,4.805 2.012,0 3.732,-1.246 4.446,-3.004 l -0.436,0 z" /><path
       style="fill:#200000;fill-opacity:0;stroke:#ffffff;stroke-opacity:1;stroke-width:0.7;stroke-miterlimit:4;stroke-dasharray:none;stroke-linejoin:round"
       inkscape:connector-curvature="0"
       id="path4324"
       d="m 61.459,54.785 c -0.536,0.619 -1.208,1.086 -1.987,1.453 l 0.15,0.374 0.703,0.612 0.938,1.021 0.479,0.646 0.333,1.438 0.099,0.979 -0.281,0.442 -0.067,0.37 14.316,0.13 c -0.359,-0.144 -0.937,-1.692 -1.621,-4.466 -0.684,-2.772 -1.548,-5.763 -1.188,-7.132 0.105,-0.271 0.198,-0.537 0.279,-0.797 1.436,-4.563 -0.708,-7.153 -1.486,-7.811 0.051,-0.38 0.039,-0.75 -0.018,-1.107 -0.378,-2.385 -2.781,-4.174 -2.781,-4.174 l -1.153,0.773 c 0.268,-0.215 0.49,-0.495 0.676,-0.808 0.129,-0.218 0.24,-0.449 0.335,-0.685 0.456,-1.131 0.553,-2.339 0.553,-2.339 -0.273,1.323 -2.22,1.526 -3.239,1.541 C 66.304,35.23 66.115,35.226 65.936,35.234 65.899,35.232 65.879,35.23 65.879,35.23 l 0,0.007 c -2.791,0.143 -2.748,1.79 -2.927,2.302 -0.021,0.055 -0.029,0.086 -0.029,0.086 -0.029,0.043 -0.06,0.094 -0.087,0.149 l 0,10e-4 c -0.497,1.008 -0.396,1.146 -0.936,1.498 -0.122,0.08 -0.221,0.175 -0.286,0.299 -10e-4,0.002 -0.003,0.004 -0.003,0.006 0,0 -10e-4,0 -10e-4,10e-4 0.228,1.437 1.226,1.603 1.226,1.603 -0.313,0.539 -0.012,0.956 0.312,1.162 0.216,0.137 0.44,0.18 0.499,0.102 0.792,-0.986 2.178,-0.42 2.178,-0.42 0,0 0.983,1.816 -1.51,3.591 -0.098,0.069 -0.2,0.14 -0.309,0.208 -0.213,0.136 -0.451,0.309 -0.704,0.508 0.313,2.551 -0.073,6.344 -1.771,8.365 z m 7.372,-0.746 c 0.937,-0.324 1.656,-0.685 2.089,-1.441 0.494,1.527 2.672,7.408 3.488,9.637 -1.792,-0.016 -4.266,-0.039 -4.266,-0.039 -0.459,-1.882 -1.456,-7.764 -1.311,-8.157 z m -0.203229,7.584742 c -0.081,0 0.05946,-0.344686 -0.03654,0.281572 L 67.454,55.119 Z"
       sodipodi:nodetypes="ccccccccccccccccccccccccccccccccccccccccccccccccccc" /><polyline
       style="fill:none;stroke:#ffffff;stroke-width:0.5;stroke-linecap:round;stroke-linejoin:round;stroke-miterlimit:10;stroke-opacity:1"
       id="polyline4326"
       points="    76,62.25 77.359,59.286 77.359,59.027 77.359,53.965   "
       stroke-miterlimit="10" /><path
       style="fill:none;fill-opacity:1;stroke:#ffffff;stroke-width:0.5;stroke-linejoin:round;stroke-miterlimit:4;stroke-dasharray:none;stroke-opacity:1"
       inkscape:connector-curvature="0"
       id="path4328"
       d="m 77.474227,53.993557 0,3.729 5.592,0 0,-3.729 z m 3.921,2.4 -0.693,0 0,0.693 -0.863,0 0,-0.693 -0.694,0 0,-0.863 0.693,0 0,-0.693 0.863,0 0,0.693 0.555262,0 0.137738,0 0,0.863 z"
       sodipodi:nodetypes="cccccccccccccccccccc" /></g></svg>